<?xml version="1.0" encoding="UTF-8"?>
<svg width="128" height="128" viewBox="0 0 128 128" xmlns="http://www.w3.org/2000/svg">
  <!-- 背景圆形 -->
  <circle cx="64" cy="64" r="60" fill="#4a7abc" />
  
  <!-- 云朵形状 -->
  <path d="M40,50 Q40,40 50,40 Q60,30 70,40 Q80,30 90,40 Q100,40 100,50 Q110,60 100,70 Q100,80 90,80 L50,80 Q40,80 40,70 Q30,60 40,50 Z" fill="white" opacity="0.9" />
  
  <!-- 数字123 -->
  <text x="64" y="68" font-family="Arial, sans-serif" font-size="24" font-weight="bold" text-anchor="middle" fill="#333333">123</text>
  
  <!-- 分享图标 -->
  <g transform="translate(64, 64) scale(0.6) translate(-64, -64)">
    <circle cx="64" cy="95" r="10" fill="#ffd54f" />
    <circle cx="40" cy="75" r="10" fill="#ffd54f" />
    <circle cx="88" cy="75" r="10" fill="#ffd54f" />
    <line x1="64" y1="95" x2="40" y2="75" stroke="#ffd54f" stroke-width="4" />
    <line x1="64" y1="95" x2="88" y2="75" stroke="#ffd54f" stroke-width="4" />
    <line x1="40" y1="75" x2="88" y2="75" stroke="#ffd54f" stroke-width="4" />
  </g>
</svg>